<?xml version="1.0" standalone="no"?>
<!DOCTYPE svg PUBLIC "-//W3C//DTD SVG 20010904//EN"
 "http://www.w3.org/TR/2001/REC-SVG-20010904/DTD/svg10.dtd">
<svg version="1.0" xmlns="http://www.w3.org/2000/svg"
 width="512.000000pt" height="512.000000pt" viewBox="0 0 512.000000 512.000000"
 preserveAspectRatio="xMidYMid meet">
<metadata>
Created by potrace 1.11, written by Peter Selinger 2001-2013
</metadata>
<g transform="translate(0.000000,512.000000) scale(0.100000,-0.100000)"
fill="#000000" stroke="none">
<path d="M3050 4778 c-162 -76 -298 -138 -303 -138 -4 0 29 54 74 121 44 66
79 122 77 124 -7 8 -668 -211 -673 -223 -2 -7 -1 -11 4 -7 8 5 436 -394 429
-400 -2 -2 -109 -49 -238 -105 -129 -56 -238 -105 -243 -109 -4 -4 78 -69 183
-145 104 -75 192 -141 194 -145 3 -5 -37 -65 -89 -135 -88 -116 -93 -126 -73
-131 13 -3 194 -41 403 -85 209 -44 385 -86 391 -93 7 -6 71 -158 142 -337
l129 -325 -22 -182 -21 -182 -45 -73 c-25 -40 -51 -82 -57 -93 -12 -22 -115
-466 -108 -472 2 -2 60 72 130 165 96 129 148 188 221 252 84 74 93 84 78 95
-10 6 -62 35 -116 65 -54 29 -95 56 -90 61 18 18 398 276 402 272 3 -2 19 -96
36 -211 31 -206 31 -207 10 -214 -15 -5 -16 -6 -3 -7 14 -1 12 -13 -19 -78
-20 -43 -54 -119 -77 -169 -39 -87 -46 -96 -156 -196 l-115 -104 -147 21 c-82
12 -148 19 -147 16 0 -3 81 -67 179 -142 l180 -135 177 45 178 46 142 -5 141
-5 231 -350 230 -350 226 -153 225 -153 0 984 0 983 -387 18 c-214 10 -389 19
-389 19 -1 1 32 212 74 469 l76 467 46 -35 45 -36 -46 44 -47 43 -32 295 -32
295 -153 215 c-85 118 -228 305 -319 415 l-166 199 -178 53 c-97 30 -197 59
-222 67 l-45 13 -295 -139z m90 -416 c151 -100 267 -182 257 -182 -22 0 -720
80 -723 83 -2 1 12 84 29 183 l31 181 66 -42 c36 -23 189 -124 340 -223z m642
-717 l323 -481 -450 75 c-247 41 -451 75 -452 76 -2 1 50 189 115 418 91 325
120 414 129 404 6 -7 157 -228 335 -492z m192 -782 c-73 -153 -135 -282 -137
-287 -3 -8 -295 53 -350 73 -14 5 52 62 295 248 172 133 316 242 320 242 4 1
-54 -124 -128 -276z"/>
<path d="M1455 4533 c-176 -41 -322 -77 -323 -78 -2 -2 43 -48 100 -102 56
-54 143 -137 193 -185 l90 -87 -55 5 c-407 40 -400 40 -395 24 55 -191 170
-550 176 -548 4 2 68 78 143 171 75 92 141 167 147 167 6 0 76 -23 155 -51
l143 -51 160 117 c89 64 163 120 165 124 5 8 -176 317 -196 336 -7 7 -9 7 -6
0 5 -8 -366 -258 -404 -273 -5 -2 46 107 114 242 88 177 127 245 137 241 11
-4 12 -3 1 10 -7 8 -15 15 -19 14 -3 0 -150 -34 -326 -76z"/>
<path d="M5088 3983 c6 -2 18 -2 25 0 6 3 1 5 -13 5 -14 0 -19 -2 -12 -5z"/>
<path d="M4913 3973 c15 -2 37 -2 50 0 12 2 0 4 -28 4 -27 0 -38 -2 -22 -4z"/>
<path d="M4723 3963 c15 -2 37 -2 50 0 12 2 0 4 -28 4 -27 0 -38 -2 -22 -4z"/>
<path d="M4533 3953 c15 -2 37 -2 50 0 12 2 0 4 -28 4 -27 0 -38 -2 -22 -4z"/>
<path d="M4605 3260 c10 -11 20 -20 23 -20 3 0 -3 9 -13 20 -10 11 -20 20 -23
20 -3 0 3 -9 13 -20z"/>
<path d="M4655 3220 c10 -11 20 -20 23 -20 3 0 -3 9 -13 20 -10 11 -20 20 -23
20 -3 0 3 -9 13 -20z"/>
<path d="M4690 3196 c0 -2 34 -32 75 -66 41 -34 75 -59 75 -56 0 2 -34 32 -75
66 -41 34 -75 59 -75 56z"/>
<path d="M4865 3050 c10 -11 20 -20 23 -20 3 0 -3 9 -13 20 -10 11 -20 20 -23
20 -3 0 3 -9 13 -20z"/>
<path d="M4915 3010 c10 -11 20 -20 23 -20 3 0 -3 9 -13 20 -10 11 -20 20 -23
20 -3 0 3 -9 13 -20z"/>
<path d="M4950 2986 c0 -6 138 -119 160 -131 23 -12 5 4 -82 74 -43 34 -78 60
-78 57z"/>
<path d="M929 2888 c0 -2 -6 -56 -13 -121 l-11 -118 35 -90 c32 -81 117 -209
139 -209 4 0 16 28 27 63 l21 62 78 -155 c74 -147 81 -158 141 -205 l64 -49 0
-154 0 -154 -47 36 c-27 20 -65 47 -85 62 l-37 26 -85 -32 c-47 -18 -86 -36
-86 -39 0 -4 38 -44 84 -90 l84 -84 92 57 92 57 155 -31 c85 -18 157 -29 160
-27 4 4 -11 100 -33 208 -5 26 -2 28 116 70 l121 44 39 71 c22 39 47 77 57 86
10 8 74 49 143 91 l125 76 165 35 c91 19 206 37 255 41 50 3 118 8 153 11 l62
6 1 67 0 66 26 -85 c14 -47 27 -87 29 -89 2 -2 105 54 230 125 139 79 219 130
207 132 -11 2 -123 -6 -251 -17 -127 -11 -250 -18 -274 -16 -24 2 -108 12
-187 21 l-143 17 -294 -34 c-161 -18 -291 -36 -288 -40 2 -4 72 -58 155 -118
83 -61 145 -111 138 -111 -29 1 -271 39 -276 44 -3 2 -9 40 -14 82 -6 43 -12
80 -13 82 -2 1 -6 -16 -10 -38 l-6 -42 -102 8 c-165 11 -166 15 -19 58 72 22
131 41 131 42 0 2 -77 28 -170 59 l-170 56 -190 -1 c-181 -2 -194 0 -273 25
-45 15 -86 32 -92 39 -37 42 -152 133 -156 124z m1085 -585 c4 -49 10 -97 13
-108 4 -17 0 -15 -25 9 -30 28 -31 28 -95 17 l-64 -11 -72 42 c-40 22 -68 44
-64 48 12 10 260 87 289 89 7 1 14 -31 18 -86z"/>
<path d="M3758 2133 c7 -3 16 -2 19 1 4 3 -2 6 -13 5 -11 0 -14 -3 -6 -6z"/>
<path d="M1190 1434 c0 -85 -2 -84 71 -38 l43 27 -39 34 c-75 64 -75 64 -75
-23z"/>
<path d="M1371 1429 c-30 -5 -56 -11 -58 -12 -1 -2 20 -39 47 -83 27 -43 50
-82 50 -85 0 -3 -32 -13 -70 -23 -39 -10 -72 -22 -75 -26 -5 -8 67 -342 72
-336 2 2 -1 52 -6 112 -5 60 -9 110 -7 111 1 1 48 -3 104 -9 57 -6 105 -8 108
-5 3 3 -22 42 -56 87 -34 45 -60 83 -58 85 1 1 49 31 106 65 57 34 102 64 100
65 -9 10 -172 65 -186 64 -9 -1 -41 -5 -71 -10z"/>
<path d="M2895 981 c-264 -57 -355 -82 -615 -169 -168 -55 -392 -124 -499
-152 l-193 -51 -124 101 c-94 76 -130 100 -147 97 l-22 -4 23 -2 c12 0 22 -4
22 -8 0 -4 -52 -181 -115 -394 -63 -213 -115 -390 -115 -393 0 -3 314 -6 698
-6 l698 0 57 31 57 31 0 101 c0 135 40 372 66 396 10 10 130 120 266 245 217
199 269 248 256 245 -2 0 -142 -31 -313 -68z"/>
<path d="M124 858 c-16 -12 -50 -42 -77 -67 l-47 -45 0 -373 0 -373 255 0
c140 0 255 3 255 8 0 4 -81 196 -180 427 -99 231 -178 426 -175 432 6 18 2 16
-31 -9z"/>
<path d="M68 863 c6 -2 18 -2 25 0 6 3 1 5 -13 5 -14 0 -19 -2 -12 -5z"/>
<path d="M223 863 c15 -2 39 -2 55 0 15 2 2 4 -28 4 -30 0 -43 -2 -27 -4z"/>
<path d="M413 853 c15 -2 37 -2 50 0 12 2 0 4 -28 4 -27 0 -38 -2 -22 -4z"/>
<path d="M593 843 c15 -2 39 -2 55 0 15 2 2 4 -28 4 -30 0 -43 -2 -27 -4z"/>
<path d="M773 833 c15 -2 39 -2 55 0 15 2 2 4 -28 4 -30 0 -43 -2 -27 -4z"/>
<path d="M963 823 c15 -2 37 -2 50 0 12 2 0 4 -28 4 -27 0 -38 -2 -22 -4z"/>
<path d="M1143 813 c15 -2 39 -2 55 0 15 2 2 4 -28 4 -30 0 -43 -2 -27 -4z"/>
</g>
</svg>
