<svg id="Layer_1" data-name="Layer 1" xmlns="http://www.w3.org/2000/svg" viewBox="0 0 735 534"><title>andrew2</title><rect x="2" y="2" width="733" height="527" style="fill:#1f1f1f"/><polygon points="42 67 96 55 109 1 42 67" style="fill:#9da0af"/><polygon points="734 1 643 114 735 107 734 1" style="fill:#6c707c"/><polygon points="643 114 654 198 735 107 643 114" style="fill:#6b6f7b"/><polygon points="654 198 734 278 735 107 654 198" style="fill:#606470"/><polygon points="598 57 643 114 734 1 598 57" style="fill:#767a86"/><polygon points="598 0 598 57 734 1 598 0" style="fill:#7b7f8b"/><polygon points="1 1 42 67 109 1 1 1" style="fill:#9da0af"/><polygon points="668 476 733 526 734 420 668 476" style="fill:#444853"/><polygon points="1 121 1 349 36 320 1 121" style="fill:#767a86"/><polygon points="109 1 204 73 226 1 109 1" style="fill:#a2a5b4"/><polygon points="0 467 4 527 117 433 0 467" style="fill:#575b67"/><polygon points="1 1 1 121 42 67 1 1" style="fill:#9599a5"/><polygon points="42 67 1 121 96 55 42 67" style="fill:#9599a5"/><polygon points="139 238 242 269 261 211 139 238" style="fill:#7f838f"/><polygon points="139 238 36 320 156 346 139 238" style="fill:#727884"/><polygon points="36 320 1 349 117 433 36 320" style="fill:#676b77"/><polygon points="1 349 0 467 117 433 1 349" style="fill:#5f636f"/><polygon points="1 121 36 320 139 238 1 121" style="fill:#7f838f"/><polygon points="96 55 1 121 139 238 96 55" style="fill:#8e929e"/><polygon points="204 73 139 238 261 211 204 73" style="fill:#888e9a"/><polygon points="36 320 117 433 156 346 36 320" style="fill:#696d79"/><polygon points="117 433 4 527 176 528 117 433" style="fill:#545863"/><polygon points="653 399 668 476 734 420 653 399" style="fill:#494d58"/><polygon points="620 329 637 364 734 278 620 329" style="fill:#575b67"/><polygon points="109 1 96 55 204 73 109 1" style="fill:#9ea1b0"/><polygon points="96 55 139 238 204 73 96 55" style="fill:#9296a2"/><polygon points="176 528 288 527 320 452 176 528" style="fill:#545863"/><polygon points="139 238 156 346 242 269 139 238" style="fill:#777b87"/><polygon points="261 211 242 269 333 260 261 211" style="fill:#7b818d"/><polygon points="204 73 302 122 316 0 204 73" style="fill:#999da9"/><polygon points="242 269 156 346 260 326 242 269" style="fill:#727682"/><polygon points="226 1 204 73 316 0 226 1" style="fill:#a1a4b3"/><polygon points="242 269 260 326 333 260 242 269" style="fill:#747a86"/><polygon points="603 253 620 329 734 278 603 253" style="fill:#5c606c"/><polygon points="654 198 603 253 734 278 654 198" style="fill:#606470"/><polygon points="668 476 671 495 733 526 668 476" style="fill:#424651"/><polygon points="204 73 261 211 302 122 204 73" style="fill:#8f939f"/><polygon points="156 346 117 433 320 452 156 346" style="fill:#636773"/><polygon points="260 326 156 346 320 452 260 326" style="fill:#666c78"/><polygon points="117 433 176 528 320 452 117 433" style="fill:#595d69"/><polygon points="386 235 391 243 393 234 386 235" style="fill:#873026"/><polygon points="302 122 374 103 378 97 302 122" style="fill:#9094a0"/><polygon points="320 452 336 496 349 482 320 452" style="fill:#7988a7"/><polygon points="302 122 368 179 369 168 302 122" style="fill:#888c98"/><polygon points="316 0 302 122 378 97 316 0" style="fill:#969aa6"/><polygon points="320 452 288 527 336 496 320 452" style="fill:#8493b2"/><polygon points="260 326 320 452 336 395 260 326" style="fill:#646874"/><polygon points="365 213 370 204 371 187 365 213" style="fill:#7f838f"/><polygon points="368 179 365 213 371 187 368 179" style="fill:#818591"/><polygon points="261 211 333 260 365 213 261 211" style="fill:#7e828e"/><polygon points="371 187 378 187 378 182 371 187" style="fill:#191011"/><polygon points="333 260 260 326 366 337 333 260" style="fill:#717581"/><polygon points="260 326 336 395 366 337 260 326" style="fill:#696d79"/><polygon points="368 179 371 187 378 182 368 179" style="fill:#161010"/><polygon points="302 122 261 211 368 179 302 122" style="fill:#888c98"/><polygon points="261 211 365 213 368 179 261 211" style="fill:#818591"/><polygon points="397 251 388 263 399 272 397 251" style="fill:#e4a184"/><polygon points="349 482 336 496 369 532 349 482" style="fill:#707f9e"/><polygon points="651 486 655 500 671 495 651 486" style="fill:#eaad90"/><polygon points="336 496 288 527 369 532 336 496" style="fill:#7786a5"/><polygon points="376 174 368 179 378 182 376 174" style="fill:#161209"/><polygon points="387 250 384 245 388 263 387 250" style="fill:#896275"/><polygon points="336 395 372 431 377 396 336 395" style="fill:#808eb1"/><polygon points="336 395 320 452 372 431 336 395" style="fill:#8290b3"/><polygon points="320 452 349 482 372 431 320 452" style="fill:#7b8aa9"/><polygon points="378 211 383 214 385 201 378 211" style="fill:#f8ab97"/><polygon points="446 190 449 213 460 189 446 190" style="fill:#dfa17c"/><polygon points="369 168 376 174 376 167 369 168" style="fill:#b08767"/><polygon points="375 112 302 122 383 138 375 112" style="fill:#8d919d"/><polygon points="374 103 302 122 375 112 374 103" style="fill:#8f939f"/><polygon points="302 122 369 168 383 138 302 122" style="fill:#888e9a"/><polygon points="371 187 370 204 376 193 371 187" style="fill:#8d867e"/><polygon points="374 103 375 112 378 97 374 103" style="fill:#978360"/><polygon points="369 168 368 179 376 174 369 168" style="fill:#271a11"/><polygon points="384 245 333 260 388 263 384 245" style="fill:#777b87"/><polygon points="432 281 418 312 438 285 432 281" style="fill:#6e727e"/><polygon points="378 187 403 195 404 186 378 187" style="fill:#170f0c"/><polygon points="365 213 381 238 381 231 365 213" style="fill:#7c808c"/><polygon points="375 217 365 213 381 231 375 217" style="fill:#897a81"/><polygon points="371 187 376 193 378 187 371 187" style="fill:#240200"/><polygon points="378 187 376 193 385 201 378 187" style="fill:#ffd2b9"/><polygon points="365 213 375 217 378 211 365 213" style="fill:#f8a186"/><polygon points="391 220 383 225 393 234 391 220" style="fill:#d89976"/><polygon points="370 204 365 213 378 211 370 204" style="fill:#f3a78d"/><polygon points="365 213 333 260 381 238 365 213" style="fill:#797f8b"/><polygon points="383 214 375 217 383 225 383 214" style="fill:#6c1d16"/><polygon points="375 217 381 231 383 225 375 217" style="fill:#82868f"/><polygon points="378 182 378 187 385 177 378 182" style="fill:#140c09"/><polygon points="383 214 391 220 391 206 383 214" style="fill:#e29480"/><polygon points="369 168 376 167 383 138 369 168" style="fill:#9a8780"/><polygon points="336 395 377 396 388 376 336 395" style="fill:#7f8db0"/><polygon points="381 238 333 260 384 245 381 238" style="fill:#797d89"/><polygon points="366 337 336 395 388 376 366 337" style="fill:#8392b3"/><polygon points="406 462 349 482 408 479 406 462" style="fill:#65738e"/><polygon points="378 211 375 217 383 214 378 211" style="fill:#fda796"/><polygon points="376 193 370 204 385 201 376 193" style="fill:#febaa7"/><polygon points="370 204 378 211 385 201 370 204" style="fill:#feb39c"/><polygon points="385 201 391 206 403 195 385 201" style="fill:#2d0b02"/><polygon points="376 174 378 182 385 177 376 174" style="fill:#81705c"/><polygon points="376 167 376 174 385 177 376 167" style="fill:#c79a7b"/><polygon points="385 201 383 214 391 206 385 201" style="fill:#f5a59a"/><polygon points="383 225 381 231 386 235 383 225" style="fill:#e0988a"/><polygon points="381 231 381 238 386 235 381 231" style="fill:#be333a"/><polygon points="381 238 384 245 386 235 381 238" style="fill:#ea7774"/><polygon points="349 482 369 532 387 528 349 482" style="fill:#687796"/><polygon points="408 479 387 528 410 534 408 479" style="fill:#161c28"/><polygon points="446 287 438 285 446 297 446 287" style="fill:#2b0e00"/><polygon points="333 260 366 337 388 263 333 260" style="fill:#707682"/><polygon points="316 0 378 97 404 26 316 0" style="fill:#989ca8"/><polygon points="385 177 378 187 404 186 385 177" style="fill:#1f1412"/><polygon points="386 235 384 245 391 243 386 235" style="fill:#e7847f"/><polygon points="384 245 387 250 391 243 384 245" style="fill:#993738"/><polygon points="376 167 385 177 393 170 376 167" style="fill:#e69f83"/><polygon points="383 214 383 225 391 220 383 214" style="fill:#5b180f"/><polygon points="383 138 376 167 393 170 383 138" style="fill:#e8a07a"/><polygon points="383 225 386 235 393 234 383 225" style="fill:#fda78e"/><polygon points="372 431 406 462 426 417 372 431" style="fill:#6a7998"/><polygon points="391 243 397 251 401 237 391 243" style="fill:#e4947b"/><polygon points="396 114 375 112 396 122 396 114" style="fill:#79573e"/><polygon points="375 112 383 138 396 122 375 112" style="fill:#403323"/><polygon points="473 252 448 275 481 286 473 252" style="fill:#f9a67a"/><polygon points="377 396 372 431 426 417 377 396" style="fill:#7989aa"/><polygon points="396 114 396 122 410 127 396 114" style="fill:#734633"/><polygon points="378 97 375 112 396 114 378 97" style="fill:#ab8369"/><polygon points="387 250 388 263 397 251 387 250" style="fill:#d79a7e"/><polygon points="391 243 387 250 397 251 391 243" style="fill:#835234"/><polygon points="366 337 388 376 399 363 366 337" style="fill:#7a8aac"/><polygon points="393 234 391 243 401 237 393 234" style="fill:#8c4436"/><polygon points="391 206 391 220 398 210 391 206" style="fill:#521a0d"/><polygon points="349 482 387 528 408 479 349 482" style="fill:#6a7797"/><polygon points="388 376 377 396 426 417 388 376" style="fill:#7d8bae"/><polygon points="388 263 366 337 399 272 388 263" style="fill:#717581"/><polygon points="404 212 391 220 406 223 404 212" style="fill:#672d21"/><polygon points="399 363 388 376 426 417 399 363" style="fill:#7f8ead"/><polygon points="403 195 410 199 410 193 403 195" style="fill:#cd8463"/><polygon points="393 170 385 177 402 177 393 170" style="fill:#cb8665"/><polygon points="416 101 410 127 425 116 416 101" style="fill:#6c4e36"/><polygon points="378 187 385 201 403 195 378 187" style="fill:#100"/><polygon points="428 87 451 89 459 77 428 87" style="fill:#5b5653"/><polygon points="391 206 398 210 403 195 391 206" style="fill:#25160f"/><polygon points="416 187 410 193 418 191 416 187" style="fill:#904c35"/><polygon points="398 210 391 220 404 212 398 210" style="fill:#6a382d"/><polygon points="401 237 397 251 406 246 401 237" style="fill:#e29374"/><polygon points="402 177 385 177 404 186 402 177" style="fill:#572919"/><polygon points="438 285 446 287 448 275 438 285" style="fill:#3e1c13"/><polygon points="393 234 401 237 406 223 393 234" style="fill:#e1a17b"/><polygon points="372 431 349 482 406 462 372 431" style="fill:#6e7d9c"/><polygon points="410 193 416 198 418 191 410 193" style="fill:#eea680"/><polygon points="404 186 403 195 410 193 404 186" style="fill:#6a3c25"/><polygon points="443 129 434 141 472 149 443 129" style="fill:#896245"/><polygon points="391 220 393 234 406 223 391 220" style="fill:#e9a485"/><polygon points="463 191 482 196 484 179 463 191" style="fill:#ffa489"/><polygon points="404 26 378 97 408 90 404 26" style="fill:#9195a1"/><polygon points="378 97 396 114 408 90 378 97" style="fill:#614d42"/><polygon points="383 138 393 170 410 127 383 138" style="fill:#f1a37f"/><polygon points="396 122 383 138 410 127 396 122" style="fill:#d9a085"/><polygon points="416 101 425 116 428 87 416 101" style="fill:#937762"/><polygon points="668 476 651 486 671 495 668 476" style="fill:#cea089"/><polygon points="398 210 404 212 410 199 398 210" style="fill:#582d26"/><polygon points="387 528 369 532 410 534 387 528" style="fill:#212639"/><polygon points="403 195 398 210 410 199 403 195" style="fill:#4d140d"/><polygon points="408 90 416 101 428 87 408 90" style="fill:#b89076"/><polygon points="404 212 406 223 412 218 404 212" style="fill:#e5a18c"/><polygon points="417 182 416 187 418 191 417 182" style="fill:#c2412e"/><polygon points="402 177 417 182 428 162 402 177" style="fill:#f6b188"/><polygon points="410 199 404 212 415 208 410 199" style="fill:#6f3625"/><polygon points="404 212 412 218 415 208 404 212" style="fill:#f2b08e"/><polygon points="396 114 410 127 416 101 396 114" style="fill:#765840"/><polygon points="404 186 416 187 417 182 404 186" style="fill:#fa9f84"/><polygon points="408 90 396 114 416 101 408 90" style="fill:#8d7255"/><polygon points="410 199 415 208 416 198 410 199" style="fill:#934632"/><polygon points="410 193 410 199 416 198 410 193" style="fill:#e7a281"/><polygon points="404 26 428 87 459 77 404 26" style="fill:#8f939f"/><polygon points="404 186 410 193 416 187 404 186" style="fill:#753d22"/><polygon points="402 177 404 186 417 182 402 177" style="fill:#d55c49"/><polygon points="443 179 442 186 446 190 443 179" style="fill:#e4101f"/><polygon points="406 246 397 251 418 267 406 246" style="fill:#bb8563"/><polygon points="404 26 408 90 428 87 404 26" style="fill:#9094a0"/><polygon points="446 190 432 193 449 213 446 190" style="fill:#efaa80"/><polygon points="397 251 399 272 418 267 397 251" style="fill:#cc9674"/><polygon points="399 272 366 337 418 312 399 272" style="fill:#6e727e"/><polygon points="366 337 399 363 418 312 366 337" style="fill:#8899b3"/><polygon points="418 191 416 198 419 201 418 191" style="fill:#e99d7b"/><polygon points="416 198 415 208 419 201 416 198" style="fill:#9f4e30"/><polygon points="399 272 418 312 432 281 399 272" style="fill:#6f737f"/><polygon points="418 191 419 201 432 193 418 191" style="fill:#7c3926"/><polygon points="410 127 393 170 428 162 410 127" style="fill:#f4ab8a"/><polygon points="393 170 402 177 428 162 393 170" style="fill:#fab693"/><polygon points="418 267 399 272 432 281 418 267" style="fill:#3e2a23"/><polygon points="401 237 406 246 430 236 401 237" style="fill:#dd9f76"/><polygon points="406 223 401 237 430 236 406 223" style="fill:#dfa077"/><polygon points="415 208 412 218 430 236 415 208" style="fill:#e3a27c"/><polygon points="425 116 443 129 448 106 425 116" style="fill:#3e2415"/><polygon points="412 218 406 223 430 236 412 218" style="fill:#ebaa82"/><polygon points="406 246 418 267 430 236 406 246" style="fill:#d29775"/><polygon points="417 182 418 191 432 193 417 182" style="fill:#d6785c"/><polygon points="442 186 432 193 446 190 442 186" style="fill:#8c231f"/><polygon points="410 127 428 162 434 141 410 127" style="fill:#f5af8d"/><polygon points="425 116 410 127 434 141 425 116" style="fill:#fbe4d2"/><polygon points="479 76 451 89 483 110 479 76" style="fill:#553d31"/><polygon points="425 116 434 141 443 129 425 116" style="fill:#ecc2ac"/><polygon points="443 179 460 181 472 149 443 179" style="fill:#ae8768"/><polygon points="428 87 425 116 448 106 428 87" style="fill:#a37f67"/><polygon points="460 181 463 191 484 179 460 181" style="fill:#862b19"/><polygon points="417 182 432 193 443 179 417 182" style="fill:#f50417"/><polygon points="432 193 442 186 443 179 432 193" style="fill:#d8081e"/><polygon points="428 162 417 182 443 179 428 162" style="fill:#f6a27e"/><polygon points="438 285 418 312 446 297 438 285" style="fill:#687377"/><polygon points="430 236 418 267 445 258 430 236" style="fill:#b38063"/><polygon points="418 267 432 281 445 258 418 267" style="fill:#533127"/><polygon points="399 363 456 370 457 340 399 363" style="fill:#8798b6"/><polygon points="459 77 479 76 481 0 459 77" style="fill:#8e929e"/><polygon points="415 208 430 236 449 213 415 208" style="fill:#db9a74"/><polygon points="418 312 399 363 457 340 418 312" style="fill:#8594b3"/><polygon points="428 87 448 106 451 89 428 87" style="fill:#815c4a"/><polygon points="446 297 418 312 457 340 446 297" style="fill:#8a8eb3"/><polygon points="432 281 438 285 448 275 432 281" style="fill:#4c3432"/><polygon points="445 258 432 281 448 275 445 258" style="fill:#603a2f"/><polygon points="432 193 419 201 449 213 432 193" style="fill:#eea980"/><polygon points="408 479 410 534 450 508 408 479" style="fill:#44495f"/><polygon points="485 430 450 508 488 494 485 430" style="fill:#657292"/><polygon points="419 201 415 208 449 213 419 201" style="fill:#f0a07b"/><polygon points="406 462 408 479 450 508 406 462" style="fill:#535d76"/><polygon points="486 228 472 226 489 239 486 228" style="fill:#6c2720"/><polygon points="655 500 652 526 671 525 655 500" style="fill:#e9af9b"/><polygon points="399 363 426 417 456 370 399 363" style="fill:#8695b4"/><polygon points="404 26 459 77 481 0 404 26" style="fill:#9296a2"/><polygon points="499 230 489 239 505 235 499 230" style="fill:#644032"/><polygon points="460 181 460 189 463 191 460 181" style="fill:#ab715b"/><polygon points="446 190 460 189 460 181 446 190" style="fill:#910508"/><polygon points="443 179 446 190 460 181 443 179" style="fill:#ff0419"/><polygon points="316 0 404 26 481 0 316 0" style="fill:#9a9eaa"/><polygon points="459 77 451 89 479 76 459 77" style="fill:#9f8574"/><polygon points="472 226 445 258 473 252 472 226" style="fill:#b3815e"/><polygon points="449 213 430 236 472 226 449 213" style="fill:#cd9175"/><polygon points="460 189 449 213 463 191 460 189" style="fill:#df9e74"/><polygon points="430 236 445 258 472 226 430 236" style="fill:#bd8964"/><polygon points="445 258 448 275 473 252 445 258" style="fill:#915f48"/><polygon points="434 141 428 162 472 149 434 141" style="fill:#c89578"/><polygon points="428 162 443 179 472 149 428 162" style="fill:#bc8870"/><polygon points="653 399 639 464 668 476 653 399" style="fill:#7583a0"/><polygon points="472 149 460 181 484 179 472 149" style="fill:#997859"/><polygon points="448 275 446 287 481 286 448 275" style="fill:#fcaa72"/><polygon points="446 287 446 297 481 286 446 287" style="fill:#e8b4a9"/><polygon points="463 191 449 213 477 204 463 191" style="fill:#d8946f"/><polygon points="449 213 472 226 477 204 449 213" style="fill:#d8926e"/><polygon points="489 239 481 286 505 235 489 239" style="fill:#dca175"/><polygon points="488 494 450 508 495 534 488 494" style="fill:#7988a9"/><polygon points="482 196 477 204 484 210 482 196" style="fill:#b7524a"/><polygon points="446 297 457 340 481 286 446 297" style="fill:#8c92b4"/><polygon points="451 89 448 106 483 110 451 89" style="fill:#9c7f6f"/><polygon points="443 129 472 149 483 110 443 129" style="fill:#574338"/><polygon points="463 191 477 204 482 196 463 191" style="fill:#bb6b52"/><polygon points="497 218 486 228 499 230 497 218" style="fill:#642118"/><polygon points="486 228 489 239 499 230 486 228" style="fill:#623935"/><polygon points="448 106 443 129 483 110 448 106" style="fill:#342925"/><polygon points="472 226 473 252 489 239 472 226" style="fill:#d2947b"/><polygon points="501 183 493 202 504 203 501 183" style="fill:#ec8c76"/><polygon points="456 370 426 417 485 430 456 370" style="fill:#7889a7"/><polygon points="477 204 472 226 484 210 477 204" style="fill:#a34635"/><polygon points="426 417 406 462 485 430 426 417" style="fill:#8895b7"/><polygon points="406 462 450 508 485 430 406 462" style="fill:#626a8e"/><polygon points="450 508 410 534 495 534 450 508" style="fill:#474e68"/><polygon points="479 76 483 110 499 82 479 76" style="fill:#553f34"/><polygon points="484 210 472 226 486 228 484 210" style="fill:#f6a590"/><polygon points="473 252 481 286 489 239 473 252" style="fill:#e8a97e"/><polygon points="513 99 528 120 598 57 513 99" style="fill:#808490"/><polygon points="493 202 497 218 504 203 493 202" style="fill:#c46353"/><polygon points="518 235 505 235 539 267 518 235" style="fill:#ce8359"/><polygon points="482 196 484 210 493 202 482 196" style="fill:#aa4b39"/><polygon points="481 0 479 76 499 82 481 0" style="fill:#8b8f9b"/><polygon points="514 156 501 183 524 190 514 156" style="fill:#806751"/><polygon points="484 210 486 228 497 218 484 210" style="fill:#ffad9b"/><polygon points="493 202 484 210 497 218 493 202" style="fill:#fda796"/><polygon points="483 110 472 149 514 156 483 110" style="fill:#9b7060"/><polygon points="528 120 514 156 531 147 528 120" style="fill:#3b2b1c"/><polygon points="482 196 493 202 501 183 482 196" style="fill:#ffa792"/><polygon points="484 179 482 196 501 183 484 179" style="fill:#90291a"/><polygon points="499 82 483 110 513 99 499 82" style="fill:#242017"/><polygon points="514 156 524 190 531 147 514 156" style="fill:#5b4e3b"/><polygon points="504 203 497 218 510 218 504 203" style="fill:#6d362f"/><polygon points="539 267 511 311 564 284 539 267" style="fill:#908da2"/><polygon points="456 370 485 430 504 381 456 370" style="fill:#7a87a7"/><polygon points="457 340 456 370 504 381 457 340" style="fill:#8897b6"/><polygon points="499 230 505 235 510 218 499 230" style="fill:#5f4136"/><polygon points="499 82 513 99 598 57 499 82" style="fill:#828692"/><polygon points="531 147 524 190 588 193 531 147" style="fill:#747884"/><polygon points="497 218 499 230 510 218 497 218" style="fill:#613b32"/><polygon points="457 340 504 381 511 311 457 340" style="fill:#8a99b8"/><polygon points="481 286 457 340 511 311 481 286" style="fill:#8f98b9"/><polygon points="501 183 504 203 524 190 501 183" style="fill:#825f49"/><polygon points="472 149 484 179 514 156 472 149" style="fill:#7f5d42"/><polygon points="484 179 501 183 514 156 484 179" style="fill:#99755b"/><polygon points="511 311 504 381 536 367 511 311" style="fill:#8796b5"/><polygon points="564 284 536 367 602 344 564 284" style="fill:#8291b0"/><polygon points="510 218 505 235 518 235 510 218" style="fill:#a26a4f"/><polygon points="504 203 510 218 524 190 504 203" style="fill:#916854"/><polygon points="510 218 518 235 524 190 510 218" style="fill:#6f5240"/><polygon points="483 110 514 156 528 120 483 110" style="fill:#2d1c12"/><polygon points="513 99 483 110 528 120 513 99" style="fill:#1d140f"/><polygon points="639 464 628 472 640 479 639 464" style="fill:#0e121e"/><polygon points="651 486 640 479 655 500 651 486" style="fill:#564649"/><polygon points="504 381 485 430 536 367 504 381" style="fill:#7780a1"/><polygon points="481 286 511 311 539 267 481 286" style="fill:#9496ad"/><polygon points="511 311 536 367 564 284 511 311" style="fill:#828faf"/><polygon points="505 235 481 286 539 267 505 235" style="fill:#f6a178"/><polygon points="488 494 495 534 617 529 488 494" style="fill:#636e84"/><polygon points="639 395 639 464 653 399 639 395" style="fill:#2e3a52"/><polygon points="639 464 651 486 668 476 639 464" style="fill:#73819b"/><polygon points="524 190 518 235 588 193 524 190" style="fill:#6f7581"/><polygon points="518 235 539 267 588 193 518 235" style="fill:#6d717d"/><polygon points="635 527 652 526 655 500 635 527" style="fill:#5b5563"/><polygon points="481 0 499 82 598 57 481 0" style="fill:#858b97"/><polygon points="598 0 481 0 598 57 598 0" style="fill:#878b97"/><polygon points="588 193 603 253 654 198 588 193" style="fill:#676d79"/><polygon points="639 395 628 472 639 464 639 395" style="fill:#141d2c"/><polygon points="588 193 539 267 603 253 588 193" style="fill:#686e7a"/><polygon points="539 267 564 284 603 253 539 267" style="fill:#676b77"/><polygon points="603 253 564 284 620 329 603 253" style="fill:#616571"/><polygon points="564 284 602 344 620 329 564 284" style="fill:#8e9dbe"/><polygon points="640 479 635 527 655 500 640 479" style="fill:#343844"/><polygon points="639 464 640 479 651 486 639 464" style="fill:#6b7285"/><polygon points="485 430 488 494 628 472 485 430" style="fill:#5d6782"/><polygon points="488 494 617 529 628 472 488 494" style="fill:#7e8dac"/><polygon points="536 367 485 430 628 472 536 367" style="fill:#6e7794"/><polygon points="620 329 602 344 637 364 620 329" style="fill:#8a94b8"/><polygon points="617 529 635 527 640 479 617 529" style="fill:#060d17"/><polygon points="628 472 617 529 640 479 628 472" style="fill:#060407"/><polygon points="671 495 655 500 671 525 671 495" style="fill:#da9c83"/><polygon points="602 344 536 367 639 395 602 344" style="fill:#7b8aa9"/><polygon points="637 364 602 344 639 395 637 364" style="fill:#74829d"/><polygon points="536 367 628 472 639 395 536 367" style="fill:#7683a3"/><polygon points="734 278 637 364 734 420 734 278" style="fill:#50545f"/><polygon points="637 364 653 399 734 420 637 364" style="fill:#4e525d"/><polygon points="637 364 639 395 653 399 637 364" style="fill:#8690a9"/><polygon points="528 120 531 147 643 114 528 120" style="fill:#787c88"/><polygon points="531 147 588 193 643 114 531 147" style="fill:#737783"/><polygon points="598 57 528 120 643 114 598 57" style="fill:#7a7e8a"/><polygon points="635 527 617 529 652 526 635 527" style="fill:#232635"/><polygon points="671 495 671 525 733 526 671 495" style="fill:#414550"/><polygon points="671 525 652 526 733 526 671 525" style="fill:#40444f"/><polygon points="643 114 588 193 654 198 643 114" style="fill:#6d717d"/></svg>