<svg id="Layer_1" data-name="Layer 1" xmlns="http://www.w3.org/2000/svg" viewBox="0 0 733 528"><defs><style>.cls-1{fill:#1f1f1f;}.cls-2{fill:#9ba1af;}.cls-3{fill:#686c78;}.cls-4{fill:#616571;}.cls-5{fill:#797d89;}.cls-6{fill:#999da9;}.cls-7{fill:#575b67;}.cls-8{fill:#5e626e;}.cls-9{fill:#5b5f6b;}.cls-10{fill:#a2a5b4;}.cls-11{fill:#6f737f;}.cls-12{fill:#8291b0;}.cls-13{fill:#8d939f;}.cls-14{fill:#7e8490;}.cls-15{fill:#656975;}.cls-16{fill:#515560;}.cls-17{fill:#575b66;}.cls-18{fill:#535762;}.cls-19{fill:#9195a1;}.cls-20{fill:#454954;}.cls-21{fill:#424651;}.cls-22{fill:#828692;}.cls-23{fill:#707480;}.cls-24{fill:#545863;}.cls-25{fill:#595d69;}.cls-26{fill:#646874;}.cls-27{fill:#7988a7;}.cls-28{fill:#9ca0ac;}.cls-29{fill:#d8926e;}.cls-30{fill:#672d21;}.cls-31{fill:#8d919d;}.cls-32{fill:#9296a2;}.cls-33{fill:#7f8591;}.cls-34{fill:#7f838f;}.cls-35{fill:#696d79;}.cls-36{fill:#191011;}.cls-37{fill:#878d99;}.cls-38{fill:#170f0c;}.cls-39{fill:#868c98;}.cls-40{fill:#877281;}.cls-41{fill:#79573e;}.cls-42{fill:#240200;}.cls-43{fill:#818591;}.cls-44{fill:#8290b3;}.cls-45{fill:#7b8aa9;}.cls-46{fill:#65738e;}.cls-47{fill:#e29480;}.cls-48{fill:#9298a4;}.cls-49{fill:#b08767;}.cls-50{fill:#8a8eb3;}.cls-51{fill:#140c09;}.cls-52{fill:#271a11;}.cls-53{fill:#808eb1;}.cls-54{fill:#d89976;}.cls-55{fill:#8292b3;}.cls-56{fill:#161209;}.cls-57{fill:#8d867e;}.cls-58{fill:#161010;}.cls-59{fill:#978360;}.cls-60{fill:#f3a78d;}.cls-61{fill:#f8a186;}.cls-62{fill:#6c1d16;}.cls-63{fill:#ffd2b9;}.cls-64{fill:#fda796;}.cls-65{fill:#767a86;}.cls-66{fill:#7c808c;}.cls-67{fill:#897a81;}.cls-68{fill:#787c88;}.cls-69{fill:#f8ab97;}.cls-70{fill:#7785a2;}.cls-71{fill:#9a8780;}.cls-72{fill:#82868f;}.cls-73{fill:#898d99;}.cls-74{fill:#f5a59a;}.cls-75{fill:#81705c;}.cls-76{fill:#ab8369;}.cls-77{fill:#7c8baa;}.cls-78{fill:#c79a7b;}.cls-79{fill:#febaa7;}.cls-80{fill:#feb39c;}.cls-81{fill:#cb8665;}.cls-82{fill:#e0988a;}.cls-83{fill:#be333a;}.cls-84{fill:#ea7774;}.cls-85{fill:#e69f83;}.cls-86{fill:#eaad90;}.cls-87{fill:#e8a07a;}.cls-88{fill:#1a222f;}.cls-89{fill:#896275;}.cls-90{fill:#e7847f;}.cls-91{fill:#993738;}.cls-92{fill:#1f1412;}.cls-93{fill:#fda78e;}.cls-94{fill:#5b180f;}.cls-95{fill:#873026;}.cls-96{fill:#6c4e36;}.cls-97{fill:#ffa489;}.cls-98{fill:#e4947b;}.cls-99{fill:#403323;}.cls-100{fill:#b89076;}.cls-101{fill:#572919;}.cls-102{fill:#e3a27c;}.cls-103{fill:#d79a7e;}.cls-104{fill:#835234;}.cls-105{fill:#8494b6;}.cls-106{fill:#717581;}.cls-107{fill:#521a0d;}.cls-108{fill:#e4a184;}.cls-109{fill:#8798b6;}.cls-110{fill:#7888a9;}.cls-111{fill:#934632;}.cls-112{fill:#8c4436;}.cls-113{fill:#614d42;}.cls-114{fill:#2d0b02;}.cls-115{fill:#cea089;}.cls-116{fill:#25160f;}.cls-117{fill:#100;}.cls-118{fill:#553f34;}.cls-119{fill:#7c3926;}.cls-120{fill:#e99d7b;}.cls-121{fill:#6e7d9c;}.cls-122{fill:#6a382d;}.cls-123{fill:#937762;}.cls-124{fill:#e29374;}.cls-125{fill:#cd8463;}.cls-126{fill:#e9a485;}.cls-127{fill:#e1a17b;}.cls-128{fill:#734633;}.cls-129{fill:#6a7797;}.cls-130{fill:#d29775;}.cls-131{fill:#f1a37f;}.cls-132{fill:#d9a085;}.cls-133{fill:#4d140d;}.cls-134{fill:#582d26;}.cls-135{fill:#6a3c25;}.cls-136{fill:#e5a18c;}.cls-137{fill:#fa9f84;}.cls-138{fill:#6f3625;}.cls-139{fill:#f2b08e;}.cls-140{fill:#d55c49;}.cls-141{fill:#753d22;}.cls-142{fill:#765840;}.cls-143{fill:#8d7255;}.cls-144{fill:#e7a281;}.cls-145{fill:#8c231f;}.cls-146{fill:#ebaa82;}.cls-147{fill:#8594b3;}.cls-148{fill:#904c35;}.cls-149{fill:#cc9674;}.cls-150{fill:#bb8563;}.cls-151{fill:#6e727e;}.cls-152{fill:#8899b3;}.cls-153{fill:#eea680;}.cls-154{fill:#c2412e;}.cls-155{fill:#9f4e30;}.cls-156{fill:#f6b188;}.cls-157{fill:#fab693;}.cls-158{fill:#f4ab8a;}.cls-159{fill:#3e2a23;}.cls-160{fill:#815c4a;}.cls-161{fill:#dfa077;}.cls-162{fill:#f5af8d;}.cls-163{fill:#dd9f76;}.cls-164{fill:#fbe4d2;}.cls-165{fill:#f6a27e;}.cls-166{fill:#3e1c13;}.cls-167{fill:#d6785c;}.cls-168{fill:#603a2f;}.cls-169{fill:#4c3432;}.cls-170{fill:#e4101f;}.cls-171{fill:#ecc2ac;}.cls-172{fill:#5b5653;}.cls-173{fill:#896245;}.cls-174{fill:#2b0e00;}.cls-175{fill:#d8081e;}.cls-176{fill:#f50417;}.cls-177{fill:#b38063;}.cls-178{fill:#533127;}.cls-179{fill:#9094a0;}.cls-180{fill:#687377;}.cls-181{fill:#3e2415;}.cls-182{fill:#a37f67;}.cls-183{fill:#d8946f;}.cls-184{fill:#df9e74;}.cls-185{fill:#9f8574;}.cls-186{fill:#ab715b;}.cls-187{fill:#efaa80;}.cls-188{fill:#eea980;}.cls-189{fill:#f0a07b;}.cls-190{fill:#db9a74;}.cls-191{fill:#a26a4f;}.cls-192{fill:#8796b5;}.cls-193{fill:#7281a2;}.cls-194{fill:#5f4136;}.cls-195{fill:#b7524a;}.cls-196{fill:#ae8768;}.cls-197{fill:#bb6b52;}.cls-198{fill:#cd9175;}.cls-199{fill:#ff0419;}.cls-200{fill:#bd8964;}.cls-201{fill:#910508;}.cls-202{fill:#dfa17c;}.cls-203{fill:#bc8870;}.cls-204{fill:#c89578;}.cls-205{fill:#f9a67a;}.cls-206{fill:#3b2b1c;}.cls-207{fill:#fcaa72;}.cls-208{fill:#b3815e;}.cls-209{fill:#e8b4a9;}.cls-210{fill:#8c92b4;}.cls-211{fill:#915f48;}.cls-212{fill:#a34635;}.cls-213{fill:#5b4e3b;}.cls-214{fill:#878b97;}.cls-215{fill:#637090;}.cls-216{fill:#862b19;}.cls-217{fill:#997859;}.cls-218{fill:#553d31;}.cls-219{fill:#9c7f6f;}.cls-220{fill:#342925;}.cls-221{fill:#574338;}.cls-222{fill:#aa4b39;}.cls-223{fill:#642118;}.cls-224{fill:#f6a590;}.cls-225{fill:#4e5d7c;}.cls-226{fill:#74829d;}.cls-227{fill:#613b32;}.cls-228{fill:#908da2;}.cls-229{fill:#434e62;}.cls-230{fill:#e8a97e;}.cls-231{fill:#d2947b;}.cls-232{fill:#6c2720;}.cls-233{fill:#623935;}.cls-234{fill:#2d1c12;}.cls-235{fill:#644032;}.cls-236{fill:#ec8c76;}.cls-237{fill:#ffad9b;}.cls-238{fill:#c46353;}.cls-239{fill:#848894;}.cls-240{fill:#242017;}.cls-241{fill:#90291a;}.cls-242{fill:#ffa792;}.cls-243{fill:#dca175;}.cls-244{fill:#ce8359;}.cls-245{fill:#1d140f;}.cls-246{fill:#6d362f;}.cls-247{fill:#8f98b9;}.cls-248{fill:#808dad;}.cls-249{fill:#916854;}.cls-250{fill:#9b7060;}.cls-251{fill:#7f5d42;}.cls-252{fill:#99755b;}.cls-253{fill:#8b8f9b;}.cls-254{fill:#da9c83;}.cls-255{fill:#636773;}.cls-256{fill:#6f5240;}.cls-257{fill:#825f49;}.cls-258{fill:#806751;}.cls-259{fill:#e9af9b;}.cls-260{fill:#9a9eaa;}.cls-261{fill:#8b9ab9;}.cls-262{fill:#737c9d;}.cls-263{fill:#9496ad;}.cls-264{fill:#7b89a3;}.cls-265{fill:#f6a178;}.cls-266{fill:#727682;}.cls-267{fill:#7c86a9;}.cls-268{fill:#8693b5;}.cls-269{fill:#414550;}.cls-270{fill:#564649;}.cls-271{fill:#676b77;}.cls-272{fill:#6d737f;}.cls-273{fill:#6b6f7b;}.cls-274{fill:#647386;}.cls-275{fill:#657493;}.cls-276{fill:#8c9fbf;}.cls-277{fill:#94a3c2;}.cls-278{fill:#6e7794;}.cls-279{fill:#5d6782;}.cls-280{fill:#7e8dac;}.cls-281{fill:#161f30;}.cls-282{fill:#7b8396;}.cls-283{fill:#40444f;}.cls-284{fill:#8a94b8;}.cls-285{fill:#7683a3;}.cls-286{fill:#232635;}.cls-287{fill:#060407;}.cls-288{fill:#060d17;}.cls-289{fill:#8690a9;}.cls-290{fill:#343844;}.cls-291{fill:#5b5563;}.cls-292{fill:#4b4f5a;}</style></defs><title>andrew</title><rect class="cls-1" y="1" width="733" height="527"/><polygon class="cls-2" points="94 54 252 102 255 1 94 54"/><polygon class="cls-3" points="656 103 732 277 732 1 656 103"/><polygon class="cls-4" points="34 319 15 481 115 432 34 319"/><polygon class="cls-5" points="531 0 656 103 732 1 531 0"/><polygon class="cls-6" points="1 1 25 113 94 54 1 1"/><polygon class="cls-7" points="618 328 635 363 732 277 618 328"/><polygon class="cls-8" points="611 216 618 328 732 277 611 216"/><polygon class="cls-9" points="2 526 15 481 34 319 2 526"/><polygon class="cls-10" points="1 1 94 54 255 1 1 1"/><polygon class="cls-11" points="34 319 115 432 139 230 34 319"/><polygon class="cls-12" points="318 451 291 518 334 495 318 451"/><polygon class="cls-13" points="94 54 25 113 139 230 94 54"/><polygon class="cls-14" points="25 113 34 319 139 230 25 113"/><polygon class="cls-15" points="656 103 611 216 732 277 656 103"/><polygon class="cls-16" points="15 481 2 526 174 527 15 481"/><polygon class="cls-17" points="115 432 15 481 174 527 115 432"/><polygon class="cls-18" points="635 363 651 398 732 277 635 363"/><polygon class="cls-19" points="94 54 139 230 252 102 94 54"/><polygon class="cls-20" points="651 398 666 475 731 525 651 398"/><polygon class="cls-21" points="666 475 669 494 731 525 666 475"/><polygon class="cls-22" points="252 102 139 230 258 325 252 102"/><polygon class="cls-23" points="139 230 115 432 258 325 139 230"/><polygon class="cls-23" points="258 325 364 336 386 262 258 325"/><polygon class="cls-19" points="372 102 252 102 373 111 372 102"/><polygon class="cls-24" points="174 527 291 518 318 451 174 527"/><polygon class="cls-25" points="115 432 174 527 318 451 115 432"/><polygon class="cls-26" points="258 325 115 432 318 451 258 325"/><polygon class="cls-27" points="318 451 334 495 347 481 318 451"/><polygon class="cls-28" points="255 1 252 102 343 50 255 1"/><polygon class="cls-26" points="258 325 318 451 334 394 258 325"/><polygon class="cls-29" points="447 212 470 225 475 203 447 212"/><polygon class="cls-30" points="402 211 389 219 404 222 402 211"/><polygon class="cls-31" points="252 102 367 167 373 111 252 102"/><polygon class="cls-32" points="343 50 372 102 376 96 343 50"/><polygon class="cls-33" points="252 102 258 325 363 212 252 102"/><polygon class="cls-34" points="363 212 368 203 369 186 363 212"/><polygon class="cls-35" points="258 325 334 394 364 336 258 325"/><polygon class="cls-36" points="376 181 369 186 376 186 376 181"/><polygon class="cls-37" points="252 102 366 178 367 167 252 102"/><polygon class="cls-38" points="376 186 401 194 402 185 376 186"/><polygon class="cls-39" points="252 102 363 212 366 178 252 102"/><polygon class="cls-40" points="382 244 379 237 386 262 382 244"/><polygon class="cls-41" points="373 111 394 121 394 113 373 111"/><polygon class="cls-42" points="369 186 374 192 376 186 369 186"/><polygon class="cls-43" points="366 178 363 212 369 186 366 178"/><polygon class="cls-44" points="334 394 318 451 370 430 334 394"/><polygon class="cls-45" points="318 451 347 481 370 430 318 451"/><polygon class="cls-46" points="404 461 347 481 406 478 404 461"/><polygon class="cls-47" points="381 213 389 219 389 205 381 213"/><polygon class="cls-48" points="343 50 252 102 372 102 343 50"/><polygon class="cls-49" points="367 167 374 173 374 166 367 167"/><polygon class="cls-50" points="444 296 416 311 455 339 444 296"/><polygon class="cls-51" points="376 181 376 186 383 176 376 181"/><polygon class="cls-52" points="367 167 366 178 374 173 367 167"/><polygon class="cls-53" points="334 394 370 430 375 395 334 394"/><polygon class="cls-54" points="389 219 381 224 391 233 389 219"/><polygon class="cls-55" points="364 336 334 394 375 395 364 336"/><polygon class="cls-56" points="374 173 366 178 376 181 374 173"/><polygon class="cls-57" points="369 186 368 203 374 192 369 186"/><polygon class="cls-58" points="366 178 369 186 376 181 366 178"/><polygon class="cls-59" points="372 102 373 111 376 96 372 102"/><polygon class="cls-60" points="368 203 363 212 376 210 368 203"/><polygon class="cls-61" points="363 212 373 216 376 210 363 212"/><polygon class="cls-62" points="373 216 381 224 381 213 373 216"/><polygon class="cls-63" points="376 186 374 192 383 200 376 186"/><polygon class="cls-64" points="376 210 373 216 381 213 376 210"/><polygon class="cls-65" points="379 237 258 325 386 262 379 237"/><polygon class="cls-66" points="379 230 363 212 379 237 379 230"/><polygon class="cls-67" points="373 216 363 212 379 230 373 216"/><polygon class="cls-68" points="363 212 258 325 379 237 363 212"/><polygon class="cls-69" points="376 210 381 213 383 200 376 210"/><polygon class="cls-70" points="347 481 334 495 385 527 347 481"/><polygon class="cls-71" points="367 167 374 166 381 137 367 167"/><polygon class="cls-72" points="373 216 379 230 381 224 373 216"/><polygon class="cls-73" points="373 111 367 167 381 137 373 111"/><polygon class="cls-74" points="383 200 381 213 389 205 383 200"/><polygon class="cls-75" points="374 173 376 181 383 176 374 173"/><polygon class="cls-76" points="376 96 373 111 394 113 376 96"/><polygon class="cls-77" points="334 495 291 518 385 527 334 495"/><polygon class="cls-78" points="374 166 374 173 383 176 374 166"/><polygon class="cls-79" points="374 192 368 203 383 200 374 192"/><polygon class="cls-80" points="368 203 376 210 383 200 368 203"/><polygon class="cls-81" points="391 169 383 176 400 176 391 169"/><polygon class="cls-82" points="381 224 379 230 384 234 381 224"/><polygon class="cls-83" points="379 230 379 237 384 234 379 230"/><polygon class="cls-84" points="379 237 382 244 384 234 379 237"/><polygon class="cls-85" points="374 166 383 176 391 169 374 166"/><polygon class="cls-86" points="649 485 653 499 669 494 649 485"/><polygon class="cls-87" points="381 137 374 166 391 169 381 137"/><polygon class="cls-88" points="406 478 385 527 406 524 406 478"/><polygon class="cls-89" points="385 249 382 244 386 262 385 249"/><polygon class="cls-90" points="384 234 382 244 389 242 384 234"/><polygon class="cls-91" points="382 244 385 249 389 242 382 244"/><polygon class="cls-92" points="383 176 376 186 402 185 383 176"/><polygon class="cls-93" points="381 224 384 234 391 233 381 224"/><polygon class="cls-94" points="381 213 381 224 389 219 381 213"/><polygon class="cls-95" points="384 234 389 242 391 233 384 234"/><polygon class="cls-96" points="414 100 408 126 423 115 414 100"/><polygon class="cls-97" points="461 190 480 195 482 178 461 190"/><polygon class="cls-98" points="389 242 395 250 399 236 389 242"/><polygon class="cls-99" points="373 111 381 137 394 121 373 111"/><polygon class="cls-100" points="406 89 414 100 426 86 406 89"/><polygon class="cls-101" points="400 176 383 176 402 185 400 176"/><polygon class="cls-102" points="413 207 410 217 428 235 413 207"/><polygon class="cls-103" points="385 249 386 262 395 250 385 249"/><polygon class="cls-104" points="389 242 385 249 395 250 389 242"/><polygon class="cls-105" points="364 336 375 395 397 362 364 336"/><polygon class="cls-106" points="386 262 364 336 397 271 386 262"/><polygon class="cls-107" points="389 205 389 219 396 209 389 205"/><polygon class="cls-108" points="395 250 386 262 397 271 395 250"/><polygon class="cls-109" points="397 362 454 369 455 339 397 362"/><polygon class="cls-110" points="375 395 370 430 404 461 375 395"/><polygon class="cls-111" points="408 198 413 207 414 197 408 198"/><polygon class="cls-112" points="391 233 389 242 399 236 391 233"/><polygon class="cls-113" points="376 96 394 113 406 89 376 96"/><polygon class="cls-114" points="383 200 389 205 401 194 383 200"/><polygon class="cls-115" points="666 475 649 485 669 494 666 475"/><polygon class="cls-116" points="389 205 396 209 401 194 389 205"/><polygon class="cls-117" points="376 186 383 200 401 194 376 186"/><polygon class="cls-118" points="477 75 481 109 497 81 477 75"/><polygon class="cls-119" points="416 190 417 200 430 192 416 190"/><polygon class="cls-19" points="343 50 406 89 426 86 343 50"/><polygon class="cls-120" points="416 190 414 197 417 200 416 190"/><polygon class="cls-121" points="370 430 347 481 404 461 370 430"/><polygon class="cls-122" points="396 209 389 219 402 211 396 209"/><polygon class="cls-123" points="414 100 423 115 426 86 414 100"/><polygon class="cls-124" points="399 236 395 250 404 245 399 236"/><polygon class="cls-125" points="401 194 408 198 408 192 401 194"/><polygon class="cls-126" points="389 219 391 233 404 222 389 219"/><polygon class="cls-127" points="391 233 399 236 404 222 391 233"/><polygon class="cls-128" points="394 113 394 121 408 126 394 113"/><polygon class="cls-129" points="347 481 385 527 406 478 347 481"/><polygon class="cls-130" points="404 245 416 266 428 235 404 245"/><polygon class="cls-32" points="343 50 376 96 406 89 343 50"/><polygon class="cls-131" points="381 137 391 169 408 126 381 137"/><polygon class="cls-132" points="394 121 381 137 408 126 394 121"/><polygon class="cls-133" points="401 194 396 209 408 198 401 194"/><polygon class="cls-134" points="396 209 402 211 408 198 396 209"/><polygon class="cls-135" points="402 185 401 194 408 192 402 185"/><polygon class="cls-136" points="402 211 404 222 410 217 402 211"/><polygon class="cls-64" points="491 201 482 209 495 217 491 201"/><polygon class="cls-137" points="402 185 414 186 415 181 402 185"/><polygon class="cls-138" points="408 198 402 211 413 207 408 198"/><polygon class="cls-139" points="402 211 410 217 413 207 402 211"/><polygon class="cls-140" points="400 176 402 185 415 181 400 176"/><polygon class="cls-141" points="402 185 408 192 414 186 402 185"/><polygon class="cls-142" points="394 113 408 126 414 100 394 113"/><polygon class="cls-143" points="406 89 394 113 414 100 406 89"/><polygon class="cls-144" points="408 192 408 198 414 197 408 192"/><polygon class="cls-145" points="440 185 430 192 444 189 440 185"/><polygon class="cls-146" points="410 217 404 222 428 235 410 217"/><polygon class="cls-147" points="416 311 397 362 455 339 416 311"/><polygon class="cls-148" points="414 186 408 192 416 190 414 186"/><polygon class="cls-149" points="395 250 397 271 416 266 395 250"/><polygon class="cls-150" points="404 245 395 250 416 266 404 245"/><polygon class="cls-151" points="397 271 364 336 416 311 397 271"/><polygon class="cls-152" points="364 336 397 362 416 311 364 336"/><polygon class="cls-153" points="408 192 414 197 416 190 408 192"/><polygon class="cls-154" points="415 181 414 186 416 190 415 181"/><polygon class="cls-155" points="414 197 413 207 417 200 414 197"/><polygon class="cls-156" points="400 176 415 181 426 161 400 176"/><polygon class="cls-157" points="391 169 400 176 426 161 391 169"/><polygon class="cls-158" points="408 126 391 169 426 161 408 126"/><polygon class="cls-11" points="397 271 416 311 430 280 397 271"/><polygon class="cls-159" points="416 266 397 271 430 280 416 266"/><polygon class="cls-160" points="426 86 446 105 449 88 426 86"/><polygon class="cls-161" points="404 222 399 236 428 235 404 222"/><polygon class="cls-162" points="408 126 426 161 432 140 408 126"/><polygon class="cls-163" points="399 236 404 245 428 235 399 236"/><polygon class="cls-164" points="423 115 408 126 432 140 423 115"/><polygon class="cls-165" points="426 161 415 181 441 178 426 161"/><polygon class="cls-166" points="436 284 444 286 446 274 436 284"/><polygon class="cls-167" points="415 181 416 190 430 192 415 181"/><polygon class="cls-168" points="443 257 430 280 446 274 443 257"/><polygon class="cls-169" points="430 280 436 284 446 274 430 280"/><polygon class="cls-151" points="430 280 416 311 436 284 430 280"/><polygon class="cls-170" points="441 178 440 185 444 189 441 178"/><polygon class="cls-171" points="423 115 432 140 441 128 423 115"/><polygon class="cls-172" points="426 86 449 88 457 76 426 86"/><polygon class="cls-173" points="441 128 432 140 470 148 441 128"/><polygon class="cls-174" points="444 286 436 284 444 296 444 286"/><polygon class="cls-175" points="430 192 440 185 441 178 430 192"/><polygon class="cls-176" points="415 181 430 192 441 178 415 181"/><polygon class="cls-177" points="428 235 416 266 443 257 428 235"/><polygon class="cls-178" points="416 266 430 280 443 257 416 266"/><polygon class="cls-179" points="343 50 426 86 457 76 343 50"/><polygon class="cls-180" points="436 284 416 311 444 296 436 284"/><polygon class="cls-181" points="423 115 441 128 446 105 423 115"/><polygon class="cls-182" points="426 86 423 115 446 105 426 86"/><polygon class="cls-183" points="461 190 447 212 475 203 461 190"/><polygon class="cls-184" points="458 188 447 212 461 190 458 188"/><polygon class="cls-185" points="457 76 449 88 477 75 457 76"/><polygon class="cls-186" points="458 180 458 188 461 190 458 180"/><polygon class="cls-187" points="444 189 430 192 447 212 444 189"/><polygon class="cls-188" points="430 192 417 200 447 212 430 192"/><polygon class="cls-189" points="417 200 413 207 447 212 417 200"/><polygon class="cls-190" points="413 207 428 235 447 212 413 207"/><polygon class="cls-191" points="508 217 503 234 516 234 508 217"/><polygon class="cls-192" points="397 362 375 395 454 369 397 362"/><polygon class="cls-193" points="375 395 404 461 454 369 375 395"/><polygon class="cls-194" points="497 229 503 234 508 217 497 229"/><polygon class="cls-195" points="480 195 475 203 482 209 480 195"/><polygon class="cls-196" points="441 178 458 180 470 148 441 178"/><polygon class="cls-197" points="461 190 475 203 480 195 461 190"/><polygon class="cls-198" points="447 212 428 235 470 225 447 212"/><polygon class="cls-199" points="441 178 444 189 458 180 441 178"/><polygon class="cls-200" points="428 235 443 257 470 225 428 235"/><polygon class="cls-201" points="458 180 444 189 458 188 458 180"/><polygon class="cls-202" points="444 189 447 212 458 188 444 189"/><polygon class="cls-203" points="426 161 441 178 470 148 426 161"/><polygon class="cls-204" points="432 140 426 161 470 148 432 140"/><polygon class="cls-205" points="471 251 446 274 479 285 471 251"/><polygon class="cls-206" points="526 119 512 155 529 146 526 119"/><polygon class="cls-207" points="446 274 444 286 479 285 446 274"/><polygon class="cls-208" points="470 225 443 257 471 251 470 225"/><polygon class="cls-209" points="444 286 444 296 479 285 444 286"/><polygon class="cls-210" points="444 296 455 339 479 285 444 296"/><polygon class="cls-211" points="443 257 446 274 471 251 443 257"/><polygon class="cls-212" points="475 203 470 225 482 209 475 203"/><polygon class="cls-213" points="512 155 522 189 529 146 512 155"/><polygon class="cls-214" points="497 81 511 98 531 0 497 81"/><polygon class="cls-215" points="483 429 404 461 486 493 483 429"/><polygon class="cls-216" points="458 180 461 190 482 178 458 180"/><polygon class="cls-217" points="470 148 458 180 482 178 470 148"/><polygon class="cls-218" points="477 75 449 88 481 109 477 75"/><polygon class="cls-219" points="449 88 446 105 481 109 449 88"/><polygon class="cls-220" points="446 105 441 128 481 109 446 105"/><polygon class="cls-221" points="441 128 470 148 481 109 441 128"/><polygon class="cls-222" points="480 195 482 209 491 201 480 195"/><polygon class="cls-223" points="495 217 484 227 497 229 495 217"/><polygon class="cls-192" points="454 369 404 461 483 429 454 369"/><polygon class="cls-224" points="482 209 470 225 484 227 482 209"/><polygon class="cls-225" points="404 461 406 478 486 493 404 461"/><polygon class="cls-226" points="635 363 600 343 637 394 635 363"/><polygon class="cls-227" points="495 217 497 229 508 217 495 217"/><polygon class="cls-228" points="537 266 509 310 562 283 537 266"/><polygon class="cls-229" points="406 478 406 524 486 493 406 478"/><polygon class="cls-230" points="471 251 479 285 487 238 471 251"/><polygon class="cls-231" points="470 225 471 251 487 238 470 225"/><polygon class="cls-232" points="484 227 470 225 487 238 484 227"/><polygon class="cls-233" points="484 227 487 238 497 229 484 227"/><polygon class="cls-234" points="481 109 512 155 526 119 481 109"/><polygon class="cls-235" points="497 229 487 238 503 234 497 229"/><polygon class="cls-236" points="499 182 491 201 502 202 499 182"/><polygon class="cls-237" points="482 209 484 227 495 217 482 209"/><polygon class="cls-238" points="491 201 495 217 502 202 491 201"/><polygon class="cls-239" points="511 98 526 119 531 0 511 98"/><polygon class="cls-240" points="497 81 481 109 511 98 497 81"/><polygon class="cls-241" points="482 178 480 195 499 182 482 178"/><polygon class="cls-242" points="480 195 491 201 499 182 480 195"/><polygon class="cls-37" points="477 75 497 81 531 0 477 75"/><polygon class="cls-243" points="487 238 479 285 503 234 487 238"/><polygon class="cls-244" points="516 234 503 234 537 266 516 234"/><polygon class="cls-245" points="511 98 481 109 526 119 511 98"/><polygon class="cls-246" points="502 202 495 217 508 217 502 202"/><polygon class="cls-247" points="479 285 455 339 509 310 479 285"/><polygon class="cls-248" points="584 322 534 366 600 343 584 322"/><polygon class="cls-249" points="502 202 508 217 522 189 502 202"/><polygon class="cls-250" points="481 109 470 148 512 155 481 109"/><polygon class="cls-251" points="470 148 482 178 512 155 470 148"/><polygon class="cls-252" points="482 178 499 182 512 155 482 178"/><polygon class="cls-253" points="457 76 477 75 531 0 457 76"/><polygon class="cls-254" points="669 494 653 499 669 524 669 494"/><polygon class="cls-255" points="611 216 562 283 618 328 611 216"/><polygon class="cls-19" points="343 50 457 76 531 0 343 50"/><polygon class="cls-256" points="508 217 516 234 522 189 508 217"/><polygon class="cls-257" points="499 182 502 202 522 189 499 182"/><polygon class="cls-258" points="512 155 499 182 522 189 512 155"/><polygon class="cls-259" points="653 499 650 525 669 524 653 499"/><polygon class="cls-260" points="255 1 343 50 531 0 255 1"/><polygon class="cls-261" points="509 310 455 339 534 366 509 310"/><polygon class="cls-192" points="455 339 454 369 534 366 455 339"/><polygon class="cls-262" points="454 369 483 429 534 366 454 369"/><polygon class="cls-263" points="479 285 509 310 537 266 479 285"/><polygon class="cls-264" points="651 398 626 471 666 475 651 398"/><polygon class="cls-265" points="503 234 479 285 537 266 503 234"/><polygon class="cls-266" points="529 146 522 189 611 216 529 146"/><polygon class="cls-267" points="562 283 509 310 584 322 562 283"/><polygon class="cls-268" points="509 310 534 366 584 322 509 310"/><polygon class="cls-269" points="669 494 669 524 731 525 669 494"/><polygon class="cls-270" points="649 485 638 478 653 499 649 485"/><polygon class="cls-271" points="537 266 562 283 611 216 537 266"/><polygon class="cls-272" points="522 189 516 234 611 216 522 189"/><polygon class="cls-273" points="516 234 537 266 611 216 516 234"/><polygon class="cls-274" points="626 471 638 478 666 475 626 471"/><polygon class="cls-275" points="486 493 406 524 615 528 486 493"/><polygon class="cls-276" points="562 283 584 322 618 328 562 283"/><polygon class="cls-277" points="584 322 600 343 618 328 584 322"/><polygon class="cls-278" points="534 366 483 429 626 471 534 366"/><polygon class="cls-279" points="483 429 486 493 626 471 483 429"/><polygon class="cls-280" points="486 493 615 528 626 471 486 493"/><polygon class="cls-281" points="637 394 626 471 651 398 637 394"/><polygon class="cls-282" points="638 478 649 485 666 475 638 478"/><polygon class="cls-283" points="669 524 650 525 731 525 669 524"/><polygon class="cls-284" points="618 328 600 343 635 363 618 328"/><polygon class="cls-45" points="600 343 534 366 637 394 600 343"/><polygon class="cls-285" points="534 366 626 471 637 394 534 366"/><polygon class="cls-286" points="633 526 615 528 650 525 633 526"/><polygon class="cls-287" points="626 471 615 528 638 478 626 471"/><polygon class="cls-288" points="615 528 633 526 638 478 615 528"/><polygon class="cls-5" points="526 119 529 146 656 103 526 119"/><polygon class="cls-289" points="635 363 637 394 651 398 635 363"/><polygon class="cls-34" points="531 0 526 119 656 103 531 0"/><polygon class="cls-290" points="638 478 633 526 653 499 638 478"/><polygon class="cls-106" points="529 146 611 216 656 103 529 146"/><polygon class="cls-291" points="633 526 650 525 653 499 633 526"/><polygon class="cls-292" points="651 398 731 525 732 277 651 398"/></svg>